<svg xmlns="http://www.w3.org/2000/svg" viewBox="0 0 64 64" width="64" height="64">
  <defs>
    <symbol id="star" viewBox="0 0 10 10">
      <path d="M5 .7 6.1 3.6h3.1L6.7 5.4l1 3.1L5 6.7 2.3 8.5l1-3.1L.8 3.6h3.1Z"/>
    </symbol>
  </defs>
  <rect width="64" height="64" rx="14" fill="#0a2540"/>
  <path d="M0 0h64v21.5H0z" fill="#f6c945"/>
  <path d="M0 21.5h64v21H0z" fill="#003f87"/>
  <path d="M0 42.5h64V64H0z" fill="#cf142b"/>
  <g fill="#fff" opacity=".94" transform="translate(13 23) scale(.43)">
    <use href="#star" x="0" y="6"/><use href="#star" x="11" y="1"/><use href="#star" x="23" y="0"/>
    <use href="#star" x="35" y="1"/><use href="#star" x="46" y="6"/><use href="#star" x="9" y="16"/>
    <use href="#star" x="23" y="19"/><use href="#star" x="37" y="16"/>
  </g>
  <circle cx="32" cy="34" r="18" fill="#fff" opacity=".96"/>
  <text x="32" y="40" text-anchor="middle" font-family="Arial, Helvetica, sans-serif" font-size="18" font-weight="800" fill="#0a2540">SV</text>
</svg>
